<?xml version="1.0" encoding="utf-8"?>
<!-- Generator: Adobe Illustrator 18.1.1, SVG Export Plug-In . SVG Version: 6.00 Build 0)  -->
<svg version="1.1" id="Layer_1" xmlns="http://www.w3.org/2000/svg" xmlns:xlink="http://www.w3.org/1999/xlink" x="0px" y="0px"
	 viewBox="0 0 328.2 224.4" enable-background="new 0 0 328.2 224.4" xml:space="preserve">
<g>
	<path fill="#fff" d="M165.3,141.2c2.6-5.6,2.4-6.4-1.4-7c1.9-2.1,1.8-3.7,0.6-5.1c-0.4-0.4-0.5-1.2-0.4-1.9c0.4-2.8-0.1-3.3-2.6-2.8
		c-1.3,0.3-2,0.7-2,1.9c0,0.2,0,0.4,0,0.6c0.2,1.4,0.4,3,0,4.5c-1,3.3-2.3,6.6-3.9,9.9c-2.4,4.7-5.7,8.7-10.5,11.1
		c-4.8,2.4-10.5,0.6-10.7-3.9c-0.3-6.6-0.2-13.5-0.1-20.2c0-0.6,1-2,1.7-2.3c1.6-0.7,3.2-1.2,4.8-1.5c0.2,0,0.4-0.1,0.7-0.1
		c1.5-0.1,2.5,0.5,2.6,2.2c0.1,1.6,0,3.3,0.1,4.9c0.1,1,0.6,1.8,0.9,2.6c1-0.9,2.6-1.9,2.9-2.8c0.8-2.7,1.3-5.5,1.5-8.1
		c0-0.2,0-0.4,0-0.6c0.1-1.3,0.2-2.4,1.3-3.7c1.2-1.4,1.4-3,0.1-3.4c-2-0.8-2.1-2.7-2-4.9c0-0.3,0-0.6,0-1c-0.1-1.9-0.5-3.5-1.8-4.4
		c-0.2-0.2-0.5-0.3-0.7-0.4c-0.6-0.3-1.5-0.1-2.3-0.1c-0.3,0.9-0.8,1.9-0.8,2.7c0,2,0.4,4,0.2,6c-0.2,1.2-1.1,3.1-2.1,3.8
		c-1.6,1.1-3.6,1.8-5.3,2.1c-0.8,0.1-2-0.8-2-1.6c-0.2-6.6-0.2-13.3-0.1-20c0-2.5,1.6-4.4,3.9-5.9c5.5-3.5,12.2-3.5,15.3,0.3
		c2.2,2.7,3.4,6.1,3.5,10.2c0,0.6,0,1.2,0,1.8c0,0.8,0.6,1.4,0.9,2.2c0.9-0.7,2-1.2,2.6-2.1c2.4-3.7,3.1-7.1,1.6-10.1
		c-0.3-0.5-0.2-1.5,0-2.2c0.8-2.3,0.9-4.2-0.1-5.8c-0.2-0.3-0.3-0.9-0.1-1.4c1.6-4.3,0.8-8.4-2.3-9.7c-0.7-0.3-1.7,0.1-2.7,0.2
		c0.3,3.6-0.5,4.6-3.7,5.3c-1,0.2-2,0.3-3,0.5c-5.9,1-11.7,2.5-17.2,7c-0.5-0.4-1-0.7-1.6-0.9c-2.5-0.9-5.5,0.1-7.9,2.7
		c-1.1,1.2-1.8,1.4-3.1,1.2c-5.6-0.9-9.8,1.6-12.4,7.6c-0.7,1.6-0.2,2.3,1.4,1.8c1.2-0.3,2.5-0.9,3.7-1.1c3.2-0.5,4.2,0.3,4.2,3.5
		c0,6.2-0.1,12.4,0.1,18.5c0.1,2.2-0.7,3.9-2.3,5.6c-0.9,1-1.8,1.9-3,3.2c1.2,0.1,1.9,0.2,2.7,0.2c2.1,0,3.1,0.7,3,3.2
		c-0.1,3.9-0.1,7.8-0.1,11.7c0,3.9,0,7.8,0,11.7c0,2.8-1.4,4.1-4.1,3.9c-0.8-0.1-1.6-0.1-2.4-0.2c-1.1,4.7,1,7.5,5.4,6.7
		c1.8-0.3,3.7-1.4,5.4-2.4c1.2-0.7,2.1-1.2,3.2-0.6c1.4,0.7,3.3,1.1,4.8,0.1c0.2-0.1,0.4-0.3,0.6-0.5c2.8-2.7,5.4-3.5,8.1-3.2
		c0.4,0,0.8,0.1,1.2,0.2c0.1,0,0.3-0.1,0.4-0.1c6-1,11.7-3.9,17-8.8c0.8-0.7,2.3-1.2,2.9-1c0.6,0.3,0.6,1.6,0.8,2.5
		c0.1,0.2,0,0.5-0.1,0.8c2.8-1,4.6-2.6,5.5-5.5C167.1,145.8,168,142.6,165.3,141.2z M123.7,145.3c0,2.4-1.1,5-1.7,7.5
		c-0.3,0.1-0.5,0.1-0.8,0.2c-0.2-0.9-0.5-1.8-0.5-2.7c0.1-5.2,0.3-10.5,0.3-15.8c0-0.7,0.1-1.5,0.1-2.2c0-1.8,0.1-3.2-1.9-4.1
		c-0.4-0.2-1.1-0.3-1.7-0.4c3.6-1.7,3.1-4.2,3.1-6.2c0-6.5,0-12.9,0-19.4c0-1,0.2-2,0.4-3.4c2,1.9,2.4,4.2,2.5,6.6c0,0.3,0,0.7,0,1
		C123.8,119.4,123.8,132.3,123.7,145.3z"/>
	<path fill="#fff" d="M223.8,64.2c0.2-0.4,0.4-0.8,0.6-1.1c1.7-3.6,0.4-8.7-2.6-9.8c-0.6-0.2-1.5,0.1-2.2,0.3c-0.1,0-0.3,0.8-0.3,1.1
		c0,0.3,0,0.6,0,0.8c-0.2,1.7-1,2.5-3.1,2.8c-2.4,0.4-4.7,0.5-7.1,1.1c-5.3,1.4-10.7,2.7-15.7,7.1c-1.8-1.7-6.3-0.3-8.6,2.2
		c-1.2,1.3-2.2,1.6-3.5,1.6c-5.5-0.2-9.8,3.3-12.2,9.6c-0.7,1.7-0.1,2.3,1.5,1.5c1.2-0.5,2.3-1.2,3.5-1.6c3.3-1.1,4.4-0.4,4.4,2.9
		c0,3,0,6-0.1,9c0,3,0,6,0.1,8.9c0.2,3.2-1.3,5.7-3.6,8.2c-0.5,0.5-0.9,1.1-1.6,2c1.2-0.1,1.9-0.1,2.7-0.3c2.1-0.3,3.1,0.3,3,2.7
		c-0.2,7.9-0.1,15.7-0.1,23.6c0,2.5-1.5,4.1-3.9,4.3c-0.9,0.1-1.7,0.1-2.6,0.2c-0.2,0.8-0.3,1.5-0.3,2.2c-0.1,2.2,0.8,3.5,2.5,3.9
		c0.5,0.1,1.1,0.1,1.7,0.1c2.3-0.2,4.4-1.2,6.5-3c0.9-0.8,2.5-1.7,3.1-1.4c3.1,1.3,6-0.3,9-3.4c0.5-0.5,1.4-0.9,1.8-0.9
		c4.2,0.5,8.6-2.7,10-7.5c0.1-0.3,0.1-0.5,0.1-0.8c0.1-0.8-0.1-1.6-0.1-2.4c-1,0.4-2,0.6-2.9,1.2c-4.7,3.1-7.7,2.3-7.9-2.5
		c-0.2-6.5-0.2-13-0.1-19.6c0-2.3,0.9-3.4,3.2-4.3c1.4-0.5,2.9-0.8,4.3-1.2c0.4-0.1,0.7-0.1,1-0.2c2.1-0.2,3.2,0.8,3.3,3.3
		c0.1,1.6-0.1,3.2,0,4.8c0,0.6,0.4,1.6,0.8,1.6c0.7-0.1,1.6-0.7,2.1-1.3c0.6-0.6,1.2-1.6,1.3-2.3c0.4-2.2,0.8-4.5,1-6.7
		c0.1-1.7,0.1-3.1,1.4-4.8c0.6-0.7,0.6-2.8,0.2-3c-2.3-1.1-2-3.5-2-5.9c0-2.4-0.7-4.4-2.8-5.2c-0.6-0.3-1.5,0-2.3,0
		c-0.2,0.8-0.6,1.6-0.6,2.4c0,1.8,0.4,3.5,0.3,5.3c-0.1,2.2-1,4.3-3.4,5.5c-1.9,0.9-3.8,1.6-5.6,2.3c-1.5,0.5-2.6,0.2-2.6-1.4
		c0-6.7-0.1-13.5,0.1-20.3c0.1-2.5,1.7-4.8,4.1-6.2c5.7-3.4,12.2-3.1,15.6,0.7c2.8,3.1,4.2,7.1,4.4,11.9c0,0.8,0.6,1.4,1,2.2
		c0.8-0.6,1.8-1,2.4-1.8c2.3-2.9,2.9-7.1,1.6-9.9c-0.2-0.5-0.5-1.3-0.2-1.8C225.7,68.2,225.7,65.9,223.8,64.2z M185.2,124
		c0,2.5-1.1,5.3-1.7,8c-0.3,0.1-0.6,0.1-0.8,0.2c-0.1-1-0.4-1.9-0.4-2.9c0.1-5.3,0.3-10.6,0.3-15.8c0-2.8,0.9-5.2-3-5.5
		c3.1-2,2.7-5.1,2.7-7.1c0-6.4,0-12.8,0-19.2c0-1,0.2-2,0.3-3.1c2.2,1.5,2.7,4.2,2.7,7C185.3,98.4,185.4,111.2,185.2,124z
		 M184.6,107.2"/>
	<path fill="#fff" d="M281.7,135.7c-12.2-10.7-38.8-3.4-47.4-1.3c-35.4,8.5-111.3,42-138.3,45.8c-13,1.8-23.6,0.7-22.2-2.9
		c2.8-7.5,5.3-17.5,8.5-25c0.7-1.6,4.6-5.6,8.5-7.3c-3.1-3-3.8-4.7-2.6-8c3.3-9.2,8.4-26.4,11.7-33c0.8-1.6,2.3-2.8,3.5-4.3
		c0.6-0.7,1.8-1.8,1.7-2.2c-0.2-0.8-0.9-1.6-1.6-1.9c-0.1,0-0.2-0.1-0.3-0.1c-1.2-0.2-2.8-0.1-3.9,0.5c-1.4,0.7-2.1,0.7-3.2-0.1
		c-1.9-1.3-4-1.4-6,0.2c-1.6,1.2-3.1,1.3-4.9,0.8c-8.4-2.5-16.7-3.7-25.2-2.5c-1.7,0.2-3.4-0.2-4.5-2.4c-0.7-1.5-1.7-1.6-2.7-1
		c-2.5,1.5-3,7-1,10.3c-1.1,1.3-1.7,2.7-1.8,4.3c0,1.2,0.3,2.5,1,3.9c0.3,0.5,0.6,1,0.9,1.5c-3,3-1.1,9.5,2,12.2
		c2,1.7,3.6,2.1,4.9,0.9c-2.2-5.2-2.8-9.9-1-14.1c2.8-6.4,11-8.7,19.1-6.6c4.5,1.2,3.9,1.2,2.8,5.6c-2.3,9.3-7.7,25.6-10.5,30.6
		c-1.4,2.6-3.7,4.2-6.6,4.8c-0.6,0.1-1.1,0.3-1.9,0.5c0.5,0.7,0.8,1.3,1.2,1.7c1.8,1.9,4.2,3.9,3.4,6c-5.6,14.6-7.1,22.1-12.2,34.8
		c-0.3,0.8-4.2,1.4-8-1.4c0,2.6,1.4,5,2,5.7c2.1,2.1,4.5,3.2,6.8,2.7c2.1-0.5,3.5,0.1,6.3,0.9c32.9,10.1,68.1-12,104.1-26.6
		c16.1-6.5,51.3-28.2,89.6-31.9c3.3,3.5,10.3,3.3,12.5,0c1.6,3.3,7.8,3.8,9.9,1c3.7,5.1,8.9,6,12.6,4.2
		C284.5,141.2,283.6,137.4,281.7,135.7z M59.1,190.4c-2.8-1-2.2-3-1.3-4.8c1.4-3,2.5-6,3.6-9.1c1.9-5.3,3.7-10.6,5.6-16
		c0.8-2.3,1.7-4.6,2.6-6.9c0.8-2,2.2-4.6-0.9-6.6c5.5-3.4,6-9,7.9-14.4c0.9-2.5,6.1-21.1,7-23.6c0.3-0.9,0.9-1.7,1.4-2.6
		c0.2,0,0.5,0.1,0.7,0.1c0.1,0.8,0.4,1.6,0.2,2.4c-0.9,3.7-6.3,23.3-7.5,26.8c-2.2,6.4-4.3,12.8-6.5,19.2
		c-2.3,6.9-4.6,13.7-6.9,20.6c-0.7,2-1.5,4.1-2,6.2c-0.2,0.7-0.3,1.3-0.5,2c-0.1,0.6-0.3,1.2-0.3,1.9c-0.1,1.4,0.4,1.8,1.6,2.4
		c5.7,2.6,26.1,4.6,56.1-4.3C84.7,199.3,60.3,190.8,59.1,190.4z"/>
	<path fill="#fff" d="M190.1,162.6c9.3-3.9,47.4-21.6,62.8-17.6c-20.8,6.3-37.1,12-44.9,16.1c6,0.6,6.3,5,4.4,7.5c-1.9-4.7-11.9-2.8-20.4,0
		c-19.4,9.4-64.3,28.5-74,25.4C128.4,191.4,179.8,167,190.1,162.6z"/>
	<g>
		<path fill="#fff" d="M287.1,124.2c-2.9-0.2-4.7-1.6-5.3-4.2c-0.1-0.4-0.2-0.8-0.2-1.2c-0.4-4.5-0.7-9-0.9-13.4c-0.2-6.6-2.9-12-9.4-14.9
			c-0.5-0.2-1-0.6-1.9-1.2c0.9-0.3,1.7-0.7,2.5-1.1c3.2-1.9,4.8-4.7,6.2-7.8c1.4-3.1,1.7-7.2,6-7.9c-3.6-1.9-5-4.7-5.8-8
			c-1.2-5-4.2-8.9-8.4-11.5c-6.7-4.1-13.6-3.6-20.5-0.8c-0.3,0.1-0.5,0.2-0.7,0.2c-2.4-13.7-22.4-16-33.3-14
			c-17,3.1-19.7,7.2-70.6,29.8c-11.9,5.3-22.2,9.7-39.5,13.8c-14.4,3.5-46.4,3.8-46.1-9.1c-5,6.6,3.4,15.4,11.3,14.1
			c1.6,5,6.9,3,10.3,0.6c-2.1,1.4,3,4.2,3.9,4.3c3.6,0.5,6.3-2.7,9.7-3.2c2.4-0.4,4.8-0.5,7.1-0.8c5.3-0.9,10.5-2.2,15.7-3.9
			c15.9-5.2,39.8-15,55.5-20.5c27.7-9.6,57.7-26.2,59.2-1.3c0,1.3,0,2.5,0,3.4c0,5.5-0.1,11.1,0,16.6c0.1,4.1,0.4,7.9-5.4,10.2
			c1.2,0.5,1.8,0.8,2.5,1c0.3,0.1,0.6,0.2,0.8,0.3c1.8,0.7,2.5,2.2,2.5,4.6c-0.1,3.3-0.1,6.6-0.1,9.9c0,3.3,0,6.6,0,9.9
			c0,2.7-0.8,4.2-3.4,5.5c-1.6,0.8-3.3,1-5.1,1.6c0,0.2,0,0.4,0,0.6c0,1.3,0.7,2.2,1.9,2.7c2.2,1,4.7,1.1,7.1,0.1
			c0.3-0.1,0.7-0.3,1-0.5c0.1-0.1,0.3-0.1,0.4-0.2c2-1.1,3.6-1.8,5.5-0.4c0.7,0.5,2.4-0.2,3.5-0.7c1-0.4,1.9-1.2,2.7-1.8
			c1,0.5,1.9,1.1,3,1.5c3.4,1.2,7.4-0.7,8.1-4.1c0.4-1.9-0.2-2.6-2.1-2.1c-3.1,0.7-5.6-1.2-5.6-4.3c0-6.2,0-12.4,0-18.5
			c0-0.9,0-1.8,0-2.7c0.4-0.2,0.5-0.2,0.7-0.3c2-0.1,4.1-0.2,6.1-0.2c2.9,0,4.9,1.2,5.8,4c0.5,1.5,0.7,3.1,0.8,4.7
			c0.4,6.5,0.6,12.9,0.9,19.4c0.2,2.7,1.1,3.8,3.7,4.1c0.2,0,0.3,0,0.5,0c2.6,0.2,5.2-0.5,7.8,1c0.4,0.2,1.3,0.1,1.6-0.2
			c1.2-1.1,2.3-0.2,3.5,0.5c3.6,2.1,6.6,1.8,8-0.9c0.3-0.5,0.2-1.3,0.2-2C288.4,124.7,287.7,124.2,287.1,124.2z M238,113.9
			c0,1.4-0.4,2.9-0.6,4.3c-0.3,0.1-0.6,0.2-0.9,0.3c-0.3-0.9-0.9-1.8-1-2.7c0-0.1,0-0.3,0-0.4c0-6.1,0.2-12.2,0.2-18.3
			c0-1.8-0.7-4-2-4.5c-0.5-0.2-0.8-0.3-1-0.4c0.8-0.6,1.5-1.3,1.9-2.3c0.1-0.2,0.1-0.3,0.2-0.5c0-0.1,0-0.1,0.1-0.2c0,0,0,0,0-0.1
			c0.3-1,0.4-2.3,0.4-3.2c0-5.6-0.6-11.2-0.6-16.8c0-6.3-0.2-13.5-4-18.9c-3.5-5-10.4-5.5-15.8-4.4c-5.2,1-6,1.6-16,4.7
			c8.8-7.5,26.3-9.9,31.8-5.1c7.5,6.6,6.7,12.9,7,24.5c0.1,2.7,0.2,8.1,0.2,10.8C238,91.7,238,102.8,238,113.9z M260.7,81.6
			c-0.1,3.6-1.9,5.1-5.5,5.2c-0.4,0-0.9,0-1.3,0c-4.1,0.1-4.7-0.4-4.7-4.6c0-3.2,0-6.4,0-9.6c0-3.4,0-6.8,0-10.2
			c0-2.4,1.2-3.6,3.6-3.8c5.2-0.3,7.6,1.9,7.8,7.1C260.8,70.9,260.8,76.3,260.7,81.6z M263.8,61.9c4.6,1.6,4.8,17.7,1,21.2
			C264.5,76,264.1,69,263.8,61.9z M270.1,122.2c0,0-0.1,0-0.2,0c-0.4,0-1-0.2-1.2-0.5c-0.5-1-1.1-2-1.1-3.1
			c-0.4-4.3-0.5-8.6-0.9-12.9c-0.2-2.6-0.8-5.2-1.3-7.7c-0.1-0.7-0.2-1.5-0.4-2.2c0.3-0.1,0.6-0.2,0.9-0.4c0.8,1.3,2,2.6,2.3,3.9
			c0.8,3.4,1.4,6.9,1.8,10.4c0.4,3.7,0.4,7.4,0.5,11.1C270.7,121.5,270.4,122.1,270.1,122.2z"/>
		<path fill="#fff" d="M204.9,37.8c-21.3,5.6-47,20.7-63,27.6c-22,9.5-43.3,14.9-52.2,15.6c-8.3,0.7-18.2,0.9-24-4c-4.9-4.2-5.3-10.8-1.3-15.4
			c2.9-3.3,9.4-5,11.3-1.3c0.8,1.6,2.5,3.2,4.5,2.7c-0.1,5.2-6.3,6.9-8.2,5.5c-2-1.5-3.1-5.9-5.6-3.1c-2,1.8-2.3,5.1-0.3,7.5
			c8.8,11,37.5,3.7,46.4-3.2c-2.4-0.1-5.8-2.9-5.3-6.8c7.6,5.1,21.9,1.4,29.1-1.6C155.1,53.6,192,36.6,204.9,37.8z"/>
	</g>
</g>
</svg>
